<svg id="Layer_1" data-name="Layer 1" xmlns="http://www.w3.org/2000/svg" viewBox="0 0 662.89 339.3"><defs><style>.cls-1{fill:#fff;stroke:#231f20;stroke-miterlimit:10;stroke-width:3px;}</style></defs><path class="cls-1" d="M650.8,140.27V394.4L480,150.8a24.61,24.61,0,0,0-13.35-9.54v-.57h-2.41a24.76,24.76,0,0,0-9,0H415.15v.65A21.81,21.81,0,0,0,402.41,150L254.55,360.93,106.7,150A21.83,21.83,0,0,0,94,141.34v-.65H42.43V476.58H94v-255l138.2,197.14a22,22,0,0,0,22.4,8.88,22,22,0,0,0,22.4-8.88L415.15,221.6v255h51.52V221.52L637.82,465.64a24.51,24.51,0,0,0,13,9.43v1.09h51.52V140.27Z" transform="translate(-40.93 -138.77)"/></svg>